PathFileType	4	(X/Y/Z)	/Users/itak/Documents/Research/Walk-IL/dataset/trc/00513_00183.trc
DataRate	CameraRate	NumFrames	NumMarkers	Units	OrigDataRate	OrigDataStartFrame	OrigNumFrames
100.000000	100.000000	4	55	mm	100.000000	260	298
Frame#	Time	RPSI			LPSI			L3			STRN			T10			C7			CLAV			RBAK			LBAK			LSHO			LUPA			LAEL			LAOL			LWTS			LWPS			LFRA			LIFD			LHPS			LHTS			RSHO			RUPA			RAEL			RAOL			RWTS			RWPS			RFRA			RIFD			RHTS			RHPS			RBHD			LFHD			RFHD			LBHD			LHIP			RHIP			RASI			LASI			LKNE			LTHI			LANK			LTIP			LTOE			LMT1			LMT5			LHEE			RKNE			RANK			RTIP			RTOE			RMT1			RMT5			RHEE			RTHI			*53			*54			
		X1	Y1	Z1	X2	Y2	Z2	X3	Y3	Z3	X4	Y4	Z4	X5	Y5	Z5	X6	Y6	Z6	X7	Y7	Z7	X8	Y8	Z8	X9	Y9	Z9	X10	Y10	Z10	X11	Y11	Z11	X12	Y12	Z12	X13	Y13	Z13	X14	Y14	Z14	X15	Y15	Z15	X16	Y16	Z16	X17	Y17	Z17	X18	Y18	Z18	X19	Y19	Z19	X20	Y20	Z20	X21	Y21	Z21	X22	Y22	Z22	X23	Y23	Z23	X24	Y24	Z24	X25	Y25	Z25	X26	Y26	Z26	X27	Y27	Z27	X28	Y28	Z28	X29	Y29	Z29	X30	Y30	Z30	X31	Y31	Z31	X32	Y32	Z32	X33	Y33	Z33	X34	Y34	Z34	X35	Y35	Z35	X36	Y36	Z36	X37	Y37	Z37	X38	Y38	Z38	X39	Y39	Z39	X40	Y40	Z40	X41	Y41	Z41	X42	Y42	Z42	X43	Y43	Z43	X44	Y44	Z44	X45	Y45	Z45	X46	Y46	Z46	X47	Y47	Z47	X48	Y48	Z48	X49	Y49	Z49	X50	Y50	Z50	X51	Y51	Z51	X52	Y52	Z52	X53	Y53	Z53	X54	Y54	Z54	X55	Y55	Z55	

261	2.6	1167.175415039062	866.6043090820312	825.5001831054688	1250.14453125	877.6593017578125	733.3515014648438	1212.285400390625	960.6182250976562	786.7647094726562	1394.8291015625	1124.840209960938	933.8580932617188	1203.471801757812	1067.454467773438	793.5545043945312	1235.934326171875	1297.766723632812	836.3276977539062	1364.311645507812	1219.888793945312	918.2212524414062	1148.467529296875	1171.2900390625	872.0353393554688	1267.094848632812	1246.334594726562	747.5586547851562	1386.688598632812	1293.604614257812	740.8873901367188	1414.9931640625	1164.936157226562	686.0327758789062	1452.036010742188	982.130859375	679.0940551757812	1362.664306640625	934.1958618164062	684.3017578125	1569.433349609375	967.6292724609375	835.1809692382812	1570.61376953125	873.4207763671875	823.802490234375	1498.481689453125	954.7713012695312	721.0398559570312	1630.475219726562	908.3267211914062	953.0338745117188	1612.874267578125	869.3032836914062	862.1056518554688	1630.065307617188	932.9569702148438	875.5209350585938	1197.18359375	1283.290161132812	990.3467407226562	1151.78662109375	1211.557861328125	1022.587951660156	1144.784057617188	953.5204467773438	1042.405517578125	1122.311157226562	917.6356811523438	992.6920776367188	1349.074584960938	891.7567749023438	1069.17919921875	1305.043212890625	827.1574096679688	1115.536743164062	1172.918701171875	911.2665405273438	1057.692504882812	1464.716674804688	802.2803344726562	1124.445190429688	1418.205078125	854.8330688476562	1121.81298828125	1373.248046875	804.1666259765625	1145.81640625	1197.162109375	1432.514282226562	908.700439453125	1361.7177734375	1534.8896484375	859.0164184570312	1283.163940429688	1528.163940429688	958.1394653320312	1285.940551757812	1432.018310546875	776.4950561523438	1427.571411132812	827.11572265625	712.3500366210938	1176.630004882812	780.34326171875	997.3658447265625	1285.845825195312	845.1402587890625	1007.420227050781	1442.094116210938	870.3524780273438	822.6616821289062	1538.968139648438	459.7961730957031	908.8895263671875	1512.150024414062	598.962646484375	829.43359375	1444.58740234375	39.23200988769531	847.6879272460938	1525.720947265625	308.3795166015625	897.99951171875	1573.032592773438	22.03483772277832	1011.971862792969	1485.287353515625	26.40729331970215	991.2792358398438	1538.1064453125	31.0515193939209	904.0709228515625	1369.649536132812	26.98042869567871	864.9334716796875	1373.048461914062	466.8762512207031	1102.36328125	1177.156616210938	136.6863555908203	941.0406494140625	1346.726318359375	349.22705078125	1080.396240234375	1322.287475585938	47.58518600463867	1043.597534179688	1313.138549804688	70.88199615478516	973.215576171875	1229.484008789062	81.13783264160156	1022.470581054688	1177.943603515625	150.2170715332031	871.8914184570312	1240.915771484375	676.8466186523438	1045.668212890625	nan	nan	nan	nan	nan	nan	
262	2.61	1173.979858398438	871.9047241210938	829.4825439453125	1257.51025390625	882.6220703125	737.8434448242188	1220.074829101562	965.9072875976562	790.0680541992188	1399.783447265625	1129.50537109375	940.6615600585938	1211.633911132812	1072.610229492188	796.633056640625	1243.0234375	1302.702514648438	840.2749633789062	1369.763671875	1224.808471679688	924.7807006835938	1155.156372070312	1176.402221679688	873.6411743164062	1276.228515625	1251.613525390625	751.7923583984375	1395.899536132812	1299.085083007812	748.2992553710938	1426.110717773438	1170.404907226562	694.8095092773438	1464.008178710938	988.5320434570312	690.5550537109375	1375.133544921875	939.2832641601562	693.3719482421875	1576.45361328125	977.1022338867188	850.7772827148438	1579.017944335938	882.265625	842.0045776367188	1509.365600585938	962.1526489257812	734.3351440429688	1633.199951171875	921.1959228515625	971.9071044921875	1620.006958007812	880.0939331054688	881.626953125	1635.868286132812	944.1510009765625	894.0921020507812	1201.221923828125	1288.153930664062	993.1978149414062	1154.416015625	1217.035888671875	1023.981628417969	1142.483642578125	958.91357421875	1043.031860351562	1121.256591796875	924.1017456054688	991.9710083007812	1344.385375976562	890.3572387695312	1075.276000976562	1296.910278320312	827.1527709960938	1120.254028320312	1168.918334960938	916.0185546875	1058.856079101562	1455.33837890625	793.5570068359375	1129.695556640625	1411.697509765625	848.6278076171875	1127.663818359375	1364.429565429688	801.3333740234375	1151.817260742188	1203.569458007812	1438.125366210938	913.9796752929688	1368.952392578125	1539.59375	864.990966796875	1290.029296875	1533.03271484375	963.740478515625	1292.698852539062	1437.434204101562	782.0059204101562	1434.648559570312	831.0868530273438	717.6727294921875	1182.594848632812	786.2733154296875	1001.76171875	1291.816040039062	850.7217407226562	1012.01171875	1449.085083007812	874.6498413085938	828.0791625976562	1539.819702148438	460.3579406738281	911.254638671875	1515.417358398438	600.8433227539062	833.5874633789062	1444.960083007812	39.5255126953125	847.5419311523438	1526.073852539062	308.93359375	899.1386108398438	1572.946166992188	22.07209396362305	1012.040954589844	1485.4453125	26.58834266662598	991.3596801757812	1538.3017578125	31.16970443725586	904.1862182617188	1370.092529296875	27.37638282775879	864.7880859375	1380.837158203125	473.0183715820312	1106.373291015625	1201.365600585938	125.1695556640625	958.5849609375	1358.930786132812	352.4066467285156	1088.893188476562	1350.043823242188	47.55561065673828	1065.586669921875	1340.1630859375	67.50556945800781	994.4268798828125	1255.74951171875	75.9202880859375	1042.743041992188	1201.988647460938	135.7243347167969	888.8675537109375	1247.467651367188	683.1267700195312	1050.302368164062	nan	nan	nan	nan	nan	nan	
263	2.62	1180.529052734375	877.6925048828125	833.6417846679688	1264.562377929688	887.9655151367188	742.472900390625	1227.48876953125	971.6751098632812	793.36669921875	1404.62939453125	1134.633911132812	947.2996826171875	1219.39599609375	1078.324584960938	799.6796875	1249.916870117188	1308.172729492188	844.2728881835938	1375.031127929688	1230.135131835938	931.1632690429688	1161.691162109375	1182.071411132812	875.3472290039062	1284.998657226562	1257.417724609375	755.9998168945312	1404.720458984375	1305.013549804688	755.587158203125	1436.528930664062	1176.409057617188	703.185791015625	1474.410522460938	995.538818359375	701.0731201171875	1386.085571289062	945.1217041015625	701.5631103515625	1581.917846679688	986.9374389648438	865.1104736328125	1585.607055664062	891.4808349609375	859.13720703125	1518.623291015625	970.08447265625	746.5350341796875	1633.903076171875	934.4095458984375	989.4928588867188	1625.108154296875	891.1019897460938	900.2068481445312	1639.855224609375	955.6312255859375	911.442626953125	1205.291625976562	1293.547119140625	996.0482788085938	1157.173461914062	1223.078247070312	1025.450317382812	1140.542724609375	965.0433349609375	1043.439208984375	1120.242919921875	931.3649291992188	991.1173095703125	1339.662353515625	889.8630981445312	1080.95947265625	1288.914428710938	828.2521362304688	1124.640014648438	1165.226196289062	921.5550537109375	1059.787353515625	1445.704711914062	786.1227416992188	1134.273315429688	1405.010375976562	843.559814453125	1132.994750976562	1355.688110351562	800.0330810546875	1157.439575195312	1209.768188476562	1444.027221679688	919.1212768554688	1375.810913085938	1544.799194335938	870.7468872070312	1296.520385742188	1538.410278320312	969.1345825195312	1299.29638671875	1443.108764648438	787.4011840820312	1441.40673828125	835.561279296875	723.1016235351562	1188.393920898438	792.8310546875	1006.322082519531	1297.61572265625	857.0401611328125	1016.719482421875	1455.801025390625	879.6441650390625	833.5109252929688	1540.3525390625	461.3825378417969	913.3524169921875	1518.480224609375	603.3460693359375	837.7587280273438	1445.38720703125	39.93164825439453	847.4050903320312	1526.241577148438	309.7902526855469	900.15771484375	1572.864379882812	22.11602210998535	1012.110717773438	1485.677612304688	26.83537864685059	991.4684448242188	1538.544921875	31.33149719238281	904.3291625976562	1370.556030273438	27.87681007385254	864.6739501953125	1387.309326171875	478.5394897460938	1109.402709960938	1224.8720703125	114.0258255004883	976.2467651367188	1369.83642578125	355.0330200195312	1096.5498046875	1377.12353515625	48.0059700012207	1086.347290039062	1366.297241210938	64.69693756103516	1014.656799316406	1281.434936523438	71.04729461669922	1062.487915039062	1225.0849609375	121.7476806640625	906.0523071289062	1253.585327148438	689.6461791992188	1054.863647460938	nan	nan	nan	nan	nan	nan	
264	2.63	1186.8837890625	883.8262939453125	838.0090942382812	1271.324462890625	893.5760498046875	747.271484375	1234.518676757812	977.7476806640625	796.7379760742188	1409.398193359375	1140.145751953125	953.7214965820312	1226.711791992188	1084.427001953125	802.7546997070312	1256.57177734375	1314.011596679688	848.2650756835938	1380.116333007812	1235.780517578125	937.3037719726562	1168.029418945312	1188.141967773438	877.2284545898438	1293.303955078125	1263.558471679688	760.16845703125	1413.044799804688	1311.222778320312	762.6353759765625	1446.2333984375	1182.781616210938	711.0538330078125	1483.478881835938	1002.901550292969	710.6237182617188	1395.7373046875	951.4662475585938	708.8017578125	1586.052856445312	996.8419799804688	878.2193603515625	1590.681274414062	900.8882446289062	874.9065551757812	1526.5068359375	978.318359375	757.6245727539062	1632.800903320312	947.47998046875	1005.769958496094	1628.42431640625	902.0070190429688	917.6358642578125	1642.238891601562	967.0340576171875	927.5820922851562	1209.399536132812	1299.348388671875	998.9202270507812	1160.079956054688	1229.552124023438	1027.049926757812	1139.021240234375	971.734619140625	1043.693359375	1119.406616210938	939.2062377929688	990.177978515625	1335.021362304688	890.14306640625	1086.266357421875	1281.205688476562	830.2827758789062	1128.70068359375	1161.939453125	927.6986694335938	1060.550170898438	1436.010009765625	779.962646484375	1138.311279296875	1398.254760742188	839.5653686523438	1137.895629882812	1347.07666015625	799.9100952148438	1162.526977539062	1215.761108398438	1450.120971679688	924.09423828125	1382.333618164062	1550.382568359375	876.3334350585938	1302.674926757812	1544.130249023438	974.3745727539062	1305.725219726562	1449.011962890625	792.6505737304688	1447.908447265625	840.48828125	728.6610717773438	1194.074462890625	799.824951171875	1011.1044921875	1303.304077148438	863.927490234375	1021.60888671875	1462.232177734375	885.2039794921875	838.9843139648438	1540.671630859375	462.7820129394531	915.0818481445312	1521.447387695312	606.3568725585938	841.8936157226562	1445.857177734375	40.45198059082031	847.2970581054688	1526.283813476562	310.8926391601562	900.9382934570312	1572.7861328125	22.16934394836426	1012.173645019531	1485.988891601562	27.16298484802246	991.5906372070312	1538.834228515625	31.53594017028809	904.4859008789062	1371.02294921875	28.53220176696777	864.5989379882812	1392.638793945312	483.3417663574219	1111.584716796875	1247.385864257812	103.5552215576172	993.8162231445312	1379.600708007812	357.0086669921875	1103.405151367188	1403.30859375	48.91090774536133	1105.436645507812	1391.238525390625	62.46202087402344	1033.4384765625	1306.32421875	66.63274383544922	1081.37158203125	1246.865112304688	108.6546020507812	923.2673950195312	1259.390258789062	696.1917724609375	1059.424560546875	nan	nan	nan	nan	nan	nan	
